Deep Purple Live At Montreux 2006 Mkv 1080p Dts Hd Hi Res


TRACK LISTING:
1) Pictures Of Home
2) Things I Never Said
3) Strange Kind Of Woman
4) Rapture Of The Deep
5) Wrong Man
6) The Well-Dressed Guitar
7) Kiss Tomorrow Goodbye
8) When A Blind Man Cries
9) Lazy
10) Keyboard Solo
11) Space Truckin'
12) Highway Star
13) Smoke On The Water 
14) Hush
15) Too Much Fun
16) Black Night 


General 
Unique ID : 194182837565159563012789042992419675411 (0x921641105211C2A78DB46922853F9D13) 
Deep Purple Live At Montreux 2006.mkv 
Format : Matroska 
Format version : Version 2 
File size : 6.82 GiB 
Duration : 1h 43mn 
Overall bit rate : 9 463 Kbps 
Movie name : DEEP PURPLE LIVE AT MONTREUX 2006.Title1.BlurayRip 
Encoded date : UTC 2012-11-25 04:51:30 
Writing application : DVDFab 
Writing library : libebml v0.7.8 + libmatroska v0.8.1 

Video 
ID : 1 
Format : AVC 
Format/Info : Advanced Video Codec 
Format profile : High@L4.1 
Format settings, CABAC : Yes 
Format settings, ReFrames : 2 frames 
Codec ID : V_MPEG4/ISO/AVC 
Duration : 1h 43mn 
Bit rate : 7 229 Kbps 
Width : 1 920 pixels 
Height : 1 080 pixels 
Display aspect ratio : 16:9 
Frame rate mode : Constant 
Frame rate : 23.976 fps 
Color space : YUV 
Chroma subsampling : 4:2:0 
Bit depth : 8 bits 
Scan type : Progressive 
Bits/(Pixel*Frame) : 0.145 
Stream size : 5.21 GiB (76%) 
Writing library : x264 core 
Default : Yes 
Forced : No 
Color primaries : BT.709 
Transfer characteristics : BT.709 
Matrix coefficients : BT.709 

Audio 
ID : 2 
Format : DTS 
Format/Info : Digital Theater Systems 
Format profile : HRA / Core 
Mode : 16 
Format settings, Endianness : Big 
Codec ID : A_DTS 
Duration : 1h 43mn 
Bit rate mode : Constant 
Bit rate : 2 046 Kbps / 1 509 Kbps 
Channel(s) : 6 channels 
Channel positions : Front: L C R, Side: L R, LFE 
Sampling rate : 48.0 KHz 
Bit depth : 16 bits 
Compression mode : Lossy 
Stream size : 1.47 GiB (22%) 
Language : English 
Default : Yes 
Forced : No 

Menu 
00:00:00.000 : en:(01)00:00:00:000 
00:03:59.197 : en:(02)00:03:59:197 
00:09:45.876 : en:(03)00:09:45:876 
00:15:10.576 : en:(04)00:15:10:576 
00:20:47.120 : en:(05)00:20:47:120 
00:25:45.544 : en:(06)00:25:45:544 
00:34:25.271 : en:(07)00:34:25:271 
00:38:48.951 : en:(08)00:38:48:951 
00:42:48.065 : en:(09)00:42:48:065 
00:50:29.401 : en:(10)00:50:29:401 
00:53:50.185 : en:(11)00:53:50:185 
00:58:51.194 : en:(12)00:58:51:194 
01:07:37.470 : en:(13)01:07:37:470 
01:17:59.841 : en:(14)01:17:59:841 
01:24:32.484 : en:(15)01:24:32:484 
01:31:38.868 : en:(16)01:31:38:868 
